<svg xmlns="http://www.w3.org/2000/svg" xmlns:xlink="http://www.w3.org/1999/xlink" width="40" zoomAndPan="magnify" viewBox="0 0 30 30.000001" height="40" preserveAspectRatio="xMidYMid meet" version="1.0"><defs><clipPath id="f7bf501ff1"><path d="M 5 9 L 24 9 L 24 12 L 5 12 Z M 5 9 " clip-rule="nonzero"/></clipPath><clipPath id="f03ef15dc7"><path d="M 5.457031 4.238281 L 23.597656 4.59375 L 23.242188 22.738281 L 5.097656 22.378906 Z M 5.457031 4.238281 " clip-rule="nonzero"/></clipPath><clipPath id="cee5db19e5"><path d="M 5.457031 4.238281 L 23.597656 4.59375 L 23.242188 22.738281 L 5.097656 22.378906 Z M 5.457031 4.238281 " clip-rule="nonzero"/></clipPath><clipPath id="7f883ec2a1"><path d="M 5.457031 4.238281 L 23.597656 4.59375 L 23.242188 22.738281 L 5.097656 22.378906 Z M 5.457031 4.238281 " clip-rule="nonzero"/></clipPath><clipPath id="27ccfce40c"><path d="M 5 12 L 24 12 L 24 15 L 5 15 Z M 5 12 " clip-rule="nonzero"/></clipPath><clipPath id="474225b727"><path d="M 5.457031 4.238281 L 23.597656 4.59375 L 23.242188 22.738281 L 5.097656 22.378906 Z M 5.457031 4.238281 " clip-rule="nonzero"/></clipPath><clipPath id="535dafe0b4"><path d="M 5.457031 4.238281 L 23.597656 4.59375 L 23.242188 22.738281 L 5.097656 22.378906 Z M 5.457031 4.238281 " clip-rule="nonzero"/></clipPath><clipPath id="ab424fc28c"><path d="M 5.457031 4.238281 L 23.597656 4.59375 L 23.242188 22.738281 L 5.097656 22.378906 Z M 5.457031 4.238281 " clip-rule="nonzero"/></clipPath><clipPath id="10a8da7262"><path d="M 5 15 L 24 15 L 24 18 L 5 18 Z M 5 15 " clip-rule="nonzero"/></clipPath><clipPath id="971b573832"><path d="M 5.457031 4.238281 L 23.597656 4.59375 L 23.242188 22.738281 L 5.097656 22.378906 Z M 5.457031 4.238281 " clip-rule="nonzero"/></clipPath><clipPath id="9cf0c2dda1"><path d="M 5.457031 4.238281 L 23.597656 4.59375 L 23.242188 22.738281 L 5.097656 22.378906 Z M 5.457031 4.238281 " clip-rule="nonzero"/></clipPath><clipPath id="7d5b24efa4"><path d="M 5.457031 4.238281 L 23.597656 4.59375 L 23.242188 22.738281 L 5.097656 22.378906 Z M 5.457031 4.238281 " clip-rule="nonzero"/></clipPath><clipPath id="183ca1097b"><path d="M 6 18 L 22 18 L 22 20 L 6 20 Z M 6 18 " clip-rule="nonzero"/></clipPath><clipPath id="90213fbe7a"><path d="M 5.457031 4.238281 L 23.597656 4.59375 L 23.242188 22.738281 L 5.097656 22.378906 Z M 5.457031 4.238281 " clip-rule="nonzero"/></clipPath><clipPath id="0b4fc07916"><path d="M 5.457031 4.238281 L 23.597656 4.59375 L 23.242188 22.738281 L 5.097656 22.378906 Z M 5.457031 4.238281 " clip-rule="nonzero"/></clipPath><clipPath id="9d60b3c99a"><path d="M 5.457031 4.238281 L 23.597656 4.59375 L 23.242188 22.738281 L 5.097656 22.378906 Z M 5.457031 4.238281 " clip-rule="nonzero"/></clipPath><clipPath id="e7d5125834"><path d="M 6 7 L 23 7 L 23 9 L 6 9 Z M 6 7 " clip-rule="nonzero"/></clipPath><clipPath id="c70e9215dc"><path d="M 5.457031 4.238281 L 23.597656 4.59375 L 23.242188 22.738281 L 5.097656 22.378906 Z M 5.457031 4.238281 " clip-rule="nonzero"/></clipPath><clipPath id="bbb69338f7"><path d="M 5.457031 4.238281 L 23.597656 4.59375 L 23.242188 22.738281 L 5.097656 22.378906 Z M 5.457031 4.238281 " clip-rule="nonzero"/></clipPath><clipPath id="e9a470262f"><path d="M 5.457031 4.238281 L 23.597656 4.59375 L 23.242188 22.738281 L 5.097656 22.378906 Z M 5.457031 4.238281 " clip-rule="nonzero"/></clipPath><clipPath id="7d14b442f0"><path d="M 9 20 L 20 20 L 20 23 L 9 23 Z M 9 20 " clip-rule="nonzero"/></clipPath><clipPath id="9fa5bf261a"><path d="M 5.457031 4.238281 L 23.597656 4.59375 L 23.242188 22.738281 L 5.097656 22.378906 Z M 5.457031 4.238281 " clip-rule="nonzero"/></clipPath><clipPath id="c7c46ff948"><path d="M 5.457031 4.238281 L 23.597656 4.59375 L 23.242188 22.738281 L 5.097656 22.378906 Z M 5.457031 4.238281 " clip-rule="nonzero"/></clipPath><clipPath id="04ff4d8aec"><path d="M 5.457031 4.238281 L 23.597656 4.59375 L 23.242188 22.738281 L 5.097656 22.378906 Z M 5.457031 4.238281 " clip-rule="nonzero"/></clipPath><clipPath id="2c7e13f925"><path d="M 9 4 L 20 4 L 20 7 L 9 7 Z M 9 4 " clip-rule="nonzero"/></clipPath><clipPath id="47817f23cd"><path d="M 5.457031 4.238281 L 23.597656 4.59375 L 23.242188 22.738281 L 5.097656 22.378906 Z M 5.457031 4.238281 " clip-rule="nonzero"/></clipPath><clipPath id="a3abb3df24"><path d="M 5.457031 4.238281 L 23.597656 4.59375 L 23.242188 22.738281 L 5.097656 22.378906 Z M 5.457031 4.238281 " clip-rule="nonzero"/></clipPath><clipPath id="1ae7f95113"><path d="M 5.457031 4.238281 L 23.597656 4.59375 L 23.242188 22.738281 L 5.097656 22.378906 Z M 5.457031 4.238281 " clip-rule="nonzero"/></clipPath><clipPath id="d4a5c36845"><path d="M 7 5 L 22 5 L 22 8 L 7 8 Z M 7 5 " clip-rule="nonzero"/></clipPath><clipPath id="062a9ecf98"><path d="M 5.457031 4.238281 L 23.597656 4.59375 L 23.242188 22.738281 L 5.097656 22.378906 Z M 5.457031 4.238281 " clip-rule="nonzero"/></clipPath><clipPath id="bd7b9774a3"><path d="M 5.457031 4.238281 L 23.597656 4.59375 L 23.242188 22.738281 L 5.097656 22.378906 Z M 5.457031 4.238281 " clip-rule="nonzero"/></clipPath><clipPath id="9799d98640"><path d="M 5.457031 4.238281 L 23.597656 4.59375 L 23.242188 22.738281 L 5.097656 22.378906 Z M 5.457031 4.238281 " clip-rule="nonzero"/></clipPath><clipPath id="65724c205f"><path d="M 6 8 L 23 8 L 23 11 L 6 11 Z M 6 8 " clip-rule="nonzero"/></clipPath><clipPath id="ddc2b48a14"><path d="M 5.457031 4.238281 L 23.597656 4.59375 L 23.242188 22.738281 L 5.097656 22.378906 Z M 5.457031 4.238281 " clip-rule="nonzero"/></clipPath><clipPath id="9b9a938cb7"><path d="M 5.457031 4.238281 L 23.597656 4.59375 L 23.242188 22.738281 L 5.097656 22.378906 Z M 5.457031 4.238281 " clip-rule="nonzero"/></clipPath><clipPath id="53cde689a8"><path d="M 5.457031 4.238281 L 23.597656 4.59375 L 23.242188 22.738281 L 5.097656 22.378906 Z M 5.457031 4.238281 " clip-rule="nonzero"/></clipPath><clipPath id="2d4c88be2c"><path d="M 5 11 L 24 11 L 24 13 L 5 13 Z M 5 11 " clip-rule="nonzero"/></clipPath><clipPath id="bbd37742be"><path d="M 5.457031 4.238281 L 23.597656 4.59375 L 23.242188 22.738281 L 5.097656 22.378906 Z M 5.457031 4.238281 " clip-rule="nonzero"/></clipPath><clipPath id="bc1e06c5c3"><path d="M 5.457031 4.238281 L 23.597656 4.59375 L 23.242188 22.738281 L 5.097656 22.378906 Z M 5.457031 4.238281 " clip-rule="nonzero"/></clipPath><clipPath id="a48cea2320"><path d="M 5.457031 4.238281 L 23.597656 4.59375 L 23.242188 22.738281 L 5.097656 22.378906 Z M 5.457031 4.238281 " clip-rule="nonzero"/></clipPath><clipPath id="f6ac57964a"><path d="M 5 14 L 24 14 L 24 16 L 5 16 Z M 5 14 " clip-rule="nonzero"/></clipPath><clipPath id="5468143e11"><path d="M 5.457031 4.238281 L 23.597656 4.59375 L 23.242188 22.738281 L 5.097656 22.378906 Z M 5.457031 4.238281 " clip-rule="nonzero"/></clipPath><clipPath id="9ff95bec4d"><path d="M 5.457031 4.238281 L 23.597656 4.59375 L 23.242188 22.738281 L 5.097656 22.378906 Z M 5.457031 4.238281 " clip-rule="nonzero"/></clipPath><clipPath id="73c3057fe3"><path d="M 5.457031 4.238281 L 23.597656 4.59375 L 23.242188 22.738281 L 5.097656 22.378906 Z M 5.457031 4.238281 " clip-rule="nonzero"/></clipPath><clipPath id="e8f2af0c94"><path d="M 5 16 L 23 16 L 23 19 L 5 19 Z M 5 16 " clip-rule="nonzero"/></clipPath><clipPath id="e21e084a23"><path d="M 5.457031 4.238281 L 23.597656 4.59375 L 23.242188 22.738281 L 5.097656 22.378906 Z M 5.457031 4.238281 " clip-rule="nonzero"/></clipPath><clipPath id="840f6f19c5"><path d="M 5.457031 4.238281 L 23.597656 4.59375 L 23.242188 22.738281 L 5.097656 22.378906 Z M 5.457031 4.238281 " clip-rule="nonzero"/></clipPath><clipPath id="00644dcdd7"><path d="M 5.457031 4.238281 L 23.597656 4.59375 L 23.242188 22.738281 L 5.097656 22.378906 Z M 5.457031 4.238281 " clip-rule="nonzero"/></clipPath><clipPath id="7deefd148d"><path d="M 7 19 L 21 19 L 21 22 L 7 22 Z M 7 19 " clip-rule="nonzero"/></clipPath><clipPath id="59ad9ca7ed"><path d="M 5.457031 4.238281 L 23.597656 4.59375 L 23.242188 22.738281 L 5.097656 22.378906 Z M 5.457031 4.238281 " clip-rule="nonzero"/></clipPath><clipPath id="7b01417f54"><path d="M 5.457031 4.238281 L 23.597656 4.59375 L 23.242188 22.738281 L 5.097656 22.378906 Z M 5.457031 4.238281 " clip-rule="nonzero"/></clipPath><clipPath id="54acbc0999"><path d="M 5.457031 4.238281 L 23.597656 4.59375 L 23.242188 22.738281 L 5.097656 22.378906 Z M 5.457031 4.238281 " clip-rule="nonzero"/></clipPath><clipPath id="5770a4bffe"><path d="M 5 4 L 16 4 L 16 15 L 5 15 Z M 5 4 " clip-rule="nonzero"/></clipPath><clipPath id="d66f1f5717"><path d="M 5.457031 4.238281 L 23.597656 4.59375 L 23.242188 22.738281 L 5.097656 22.378906 Z M 5.457031 4.238281 " clip-rule="nonzero"/></clipPath><clipPath id="01d3d7a1b7"><path d="M 5.457031 4.238281 L 23.597656 4.59375 L 23.242188 22.738281 L 5.097656 22.378906 Z M 5.457031 4.238281 " clip-rule="nonzero"/></clipPath><clipPath id="5921b26cbc"><path d="M 5.457031 4.238281 L 23.597656 4.59375 L 23.242188 22.738281 L 5.097656 22.378906 Z M 5.457031 4.238281 " clip-rule="nonzero"/></clipPath><clipPath id="be27316645"><path d="M 6 12 L 8 12 L 8 14 L 6 14 Z M 6 12 " clip-rule="nonzero"/></clipPath><clipPath id="2a62427399"><path d="M 5.457031 4.238281 L 23.597656 4.59375 L 23.242188 22.738281 L 5.097656 22.378906 Z M 5.457031 4.238281 " clip-rule="nonzero"/></clipPath><clipPath id="5040e57be7"><path d="M 5.457031 4.238281 L 23.597656 4.59375 L 23.242188 22.738281 L 5.097656 22.378906 Z M 5.457031 4.238281 " clip-rule="nonzero"/></clipPath><clipPath id="bdf3240c6e"><path d="M 5.457031 4.238281 L 23.597656 4.59375 L 23.242188 22.738281 L 5.097656 22.378906 Z M 5.457031 4.238281 " clip-rule="nonzero"/></clipPath><clipPath id="7ae5acfbd5"><path d="M 6 10 L 8 10 L 8 12 L 6 12 Z M 6 10 " clip-rule="nonzero"/></clipPath><clipPath id="f5983b2403"><path d="M 5.457031 4.238281 L 23.597656 4.59375 L 23.242188 22.738281 L 5.097656 22.378906 Z M 5.457031 4.238281 " clip-rule="nonzero"/></clipPath><clipPath id="e470845e83"><path d="M 5.457031 4.238281 L 23.597656 4.59375 L 23.242188 22.738281 L 5.097656 22.378906 Z M 5.457031 4.238281 " clip-rule="nonzero"/></clipPath><clipPath id="4ddeb6880a"><path d="M 5.457031 4.238281 L 23.597656 4.59375 L 23.242188 22.738281 L 5.097656 22.378906 Z M 5.457031 4.238281 " clip-rule="nonzero"/></clipPath><clipPath id="b63ed2701f"><path d="M 6 8 L 8 8 L 8 10 L 6 10 Z M 6 8 " clip-rule="nonzero"/></clipPath><clipPath id="953c6bc24f"><path d="M 5.457031 4.238281 L 23.597656 4.59375 L 23.242188 22.738281 L 5.097656 22.378906 Z M 5.457031 4.238281 " clip-rule="nonzero"/></clipPath><clipPath id="9757f833a2"><path d="M 5.457031 4.238281 L 23.597656 4.59375 L 23.242188 22.738281 L 5.097656 22.378906 Z M 5.457031 4.238281 " clip-rule="nonzero"/></clipPath><clipPath id="f07aa14895"><path d="M 5.457031 4.238281 L 23.597656 4.59375 L 23.242188 22.738281 L 5.097656 22.378906 Z M 5.457031 4.238281 " clip-rule="nonzero"/></clipPath><clipPath id="6ebfaed3c2"><path d="M 7 11 L 9 11 L 9 13 L 7 13 Z M 7 11 " clip-rule="nonzero"/></clipPath><clipPath id="e7778dcdf5"><path d="M 5.457031 4.238281 L 23.597656 4.59375 L 23.242188 22.738281 L 5.097656 22.378906 Z M 5.457031 4.238281 " clip-rule="nonzero"/></clipPath><clipPath id="ed3f8bc8c9"><path d="M 5.457031 4.238281 L 23.597656 4.59375 L 23.242188 22.738281 L 5.097656 22.378906 Z M 5.457031 4.238281 " clip-rule="nonzero"/></clipPath><clipPath id="5be21a579f"><path d="M 5.457031 4.238281 L 23.597656 4.59375 L 23.242188 22.738281 L 5.097656 22.378906 Z M 5.457031 4.238281 " clip-rule="nonzero"/></clipPath><clipPath id="d1762744cb"><path d="M 7 9 L 9 9 L 9 11 L 7 11 Z M 7 9 " clip-rule="nonzero"/></clipPath><clipPath id="8404b7e8b0"><path d="M 5.457031 4.238281 L 23.597656 4.59375 L 23.242188 22.738281 L 5.097656 22.378906 Z M 5.457031 4.238281 " clip-rule="nonzero"/></clipPath><clipPath id="cd5ebb4a56"><path d="M 5.457031 4.238281 L 23.597656 4.59375 L 23.242188 22.738281 L 5.097656 22.378906 Z M 5.457031 4.238281 " clip-rule="nonzero"/></clipPath><clipPath id="86c4192742"><path d="M 5.457031 4.238281 L 23.597656 4.59375 L 23.242188 22.738281 L 5.097656 22.378906 Z M 5.457031 4.238281 " clip-rule="nonzero"/></clipPath><clipPath id="44841797c7"><path d="M 7 7 L 9 7 L 9 9 L 7 9 Z M 7 7 " clip-rule="nonzero"/></clipPath><clipPath id="71563481c5"><path d="M 5.457031 4.238281 L 23.597656 4.59375 L 23.242188 22.738281 L 5.097656 22.378906 Z M 5.457031 4.238281 " clip-rule="nonzero"/></clipPath><clipPath id="62efed7da7"><path d="M 5.457031 4.238281 L 23.597656 4.59375 L 23.242188 22.738281 L 5.097656 22.378906 Z M 5.457031 4.238281 " clip-rule="nonzero"/></clipPath><clipPath id="1518adc8c2"><path d="M 5.457031 4.238281 L 23.597656 4.59375 L 23.242188 22.738281 L 5.097656 22.378906 Z M 5.457031 4.238281 " clip-rule="nonzero"/></clipPath><clipPath id="5aa3f63de4"><path d="M 8 12 L 10 12 L 10 14 L 8 14 Z M 8 12 " clip-rule="nonzero"/></clipPath><clipPath id="cf737ae9be"><path d="M 5.457031 4.238281 L 23.597656 4.59375 L 23.242188 22.738281 L 5.097656 22.378906 Z M 5.457031 4.238281 " clip-rule="nonzero"/></clipPath><clipPath id="ef6edb60f7"><path d="M 5.457031 4.238281 L 23.597656 4.59375 L 23.242188 22.738281 L 5.097656 22.378906 Z M 5.457031 4.238281 " clip-rule="nonzero"/></clipPath><clipPath id="ba26ca775a"><path d="M 5.457031 4.238281 L 23.597656 4.59375 L 23.242188 22.738281 L 5.097656 22.378906 Z M 5.457031 4.238281 " clip-rule="nonzero"/></clipPath><clipPath id="2b4b5102ea"><path d="M 8 10 L 10 10 L 10 12 L 8 12 Z M 8 10 " clip-rule="nonzero"/></clipPath><clipPath id="c90e7ac451"><path d="M 5.457031 4.238281 L 23.597656 4.59375 L 23.242188 22.738281 L 5.097656 22.378906 Z M 5.457031 4.238281 " clip-rule="nonzero"/></clipPath><clipPath id="8ef9155c2c"><path d="M 5.457031 4.238281 L 23.597656 4.59375 L 23.242188 22.738281 L 5.097656 22.378906 Z M 5.457031 4.238281 " clip-rule="nonzero"/></clipPath><clipPath id="296fe75275"><path d="M 5.457031 4.238281 L 23.597656 4.59375 L 23.242188 22.738281 L 5.097656 22.378906 Z M 5.457031 4.238281 " clip-rule="nonzero"/></clipPath><clipPath id="6169b6bde3"><path d="M 8 8 L 10 8 L 10 10 L 8 10 Z M 8 8 " clip-rule="nonzero"/></clipPath><clipPath id="5778a9c1bd"><path d="M 5.457031 4.238281 L 23.597656 4.59375 L 23.242188 22.738281 L 5.097656 22.378906 Z M 5.457031 4.238281 " clip-rule="nonzero"/></clipPath><clipPath id="8f829928e3"><path d="M 5.457031 4.238281 L 23.597656 4.59375 L 23.242188 22.738281 L 5.097656 22.378906 Z M 5.457031 4.238281 " clip-rule="nonzero"/></clipPath><clipPath id="f56e0f79bb"><path d="M 5.457031 4.238281 L 23.597656 4.59375 L 23.242188 22.738281 L 5.097656 22.378906 Z M 5.457031 4.238281 " clip-rule="nonzero"/></clipPath><clipPath id="270d2877a6"><path d="M 8 6 L 10 6 L 10 8 L 8 8 Z M 8 6 " clip-rule="nonzero"/></clipPath><clipPath id="bf1af6ef4e"><path d="M 5.457031 4.238281 L 23.597656 4.59375 L 23.242188 22.738281 L 5.097656 22.378906 Z M 5.457031 4.238281 " clip-rule="nonzero"/></clipPath><clipPath id="dbed9dc390"><path d="M 5.457031 4.238281 L 23.597656 4.59375 L 23.242188 22.738281 L 5.097656 22.378906 Z M 5.457031 4.238281 " clip-rule="nonzero"/></clipPath><clipPath id="97fbf27a86"><path d="M 5.457031 4.238281 L 23.597656 4.59375 L 23.242188 22.738281 L 5.097656 22.378906 Z M 5.457031 4.238281 " clip-rule="nonzero"/></clipPath><clipPath id="16cfaae37d"><path d="M 9 11 L 11 11 L 11 13 L 9 13 Z M 9 11 " clip-rule="nonzero"/></clipPath><clipPath id="49f7d969fe"><path d="M 5.457031 4.238281 L 23.597656 4.59375 L 23.242188 22.738281 L 5.097656 22.378906 Z M 5.457031 4.238281 " clip-rule="nonzero"/></clipPath><clipPath id="ed4d213abe"><path d="M 5.457031 4.238281 L 23.597656 4.59375 L 23.242188 22.738281 L 5.097656 22.378906 Z M 5.457031 4.238281 " clip-rule="nonzero"/></clipPath><clipPath id="27f7f83655"><path d="M 5.457031 4.238281 L 23.597656 4.59375 L 23.242188 22.738281 L 5.097656 22.378906 Z M 5.457031 4.238281 " clip-rule="nonzero"/></clipPath><clipPath id="5fa99dcea4"><path d="M 9 9 L 11 9 L 11 11 L 9 11 Z M 9 9 " clip-rule="nonzero"/></clipPath><clipPath id="8bd41fbb8a"><path d="M 5.457031 4.238281 L 23.597656 4.59375 L 23.242188 22.738281 L 5.097656 22.378906 Z M 5.457031 4.238281 " clip-rule="nonzero"/></clipPath><clipPath id="523c3c3f68"><path d="M 5.457031 4.238281 L 23.597656 4.59375 L 23.242188 22.738281 L 5.097656 22.378906 Z M 5.457031 4.238281 " clip-rule="nonzero"/></clipPath><clipPath id="5215162a07"><path d="M 5.457031 4.238281 L 23.597656 4.59375 L 23.242188 22.738281 L 5.097656 22.378906 Z M 5.457031 4.238281 " clip-rule="nonzero"/></clipPath><clipPath id="956453a49f"><path d="M 10 7 L 11 7 L 11 9 L 10 9 Z M 10 7 " clip-rule="nonzero"/></clipPath><clipPath id="6580f3ef2f"><path d="M 5.457031 4.238281 L 23.597656 4.59375 L 23.242188 22.738281 L 5.097656 22.378906 Z M 5.457031 4.238281 " clip-rule="nonzero"/></clipPath><clipPath id="af9bcd349c"><path d="M 5.457031 4.238281 L 23.597656 4.59375 L 23.242188 22.738281 L 5.097656 22.378906 Z M 5.457031 4.238281 " clip-rule="nonzero"/></clipPath><clipPath id="8dc6e87841"><path d="M 5.457031 4.238281 L 23.597656 4.59375 L 23.242188 22.738281 L 5.097656 22.378906 Z M 5.457031 4.238281 " clip-rule="nonzero"/></clipPath><clipPath id="89aa971e9d"><path d="M 10 5 L 12 5 L 12 7 L 10 7 Z M 10 5 " clip-rule="nonzero"/></clipPath><clipPath id="67de6d33ac"><path d="M 5.457031 4.238281 L 23.597656 4.59375 L 23.242188 22.738281 L 5.097656 22.378906 Z M 5.457031 4.238281 " clip-rule="nonzero"/></clipPath><clipPath id="60aae86009"><path d="M 5.457031 4.238281 L 23.597656 4.59375 L 23.242188 22.738281 L 5.097656 22.378906 Z M 5.457031 4.238281 " clip-rule="nonzero"/></clipPath><clipPath id="2cbd368531"><path d="M 5.457031 4.238281 L 23.597656 4.59375 L 23.242188 22.738281 L 5.097656 22.378906 Z M 5.457031 4.238281 " clip-rule="nonzero"/></clipPath><clipPath id="836d193b99"><path d="M 11 12 L 13 12 L 13 14 L 11 14 Z M 11 12 " clip-rule="nonzero"/></clipPath><clipPath id="cc204fd997"><path d="M 5.457031 4.238281 L 23.597656 4.59375 L 23.242188 22.738281 L 5.097656 22.378906 Z M 5.457031 4.238281 " clip-rule="nonzero"/></clipPath><clipPath id="62359a4ea8"><path d="M 5.457031 4.238281 L 23.597656 4.59375 L 23.242188 22.738281 L 5.097656 22.378906 Z M 5.457031 4.238281 " clip-rule="nonzero"/></clipPath><clipPath id="fe6e7cdf78"><path d="M 5.457031 4.238281 L 23.597656 4.59375 L 23.242188 22.738281 L 5.097656 22.378906 Z M 5.457031 4.238281 " clip-rule="nonzero"/></clipPath><clipPath id="a7b64d67ad"><path d="M 11 10 L 13 10 L 13 12 L 11 12 Z M 11 10 " clip-rule="nonzero"/></clipPath><clipPath id="f785da4ff1"><path d="M 5.457031 4.238281 L 23.597656 4.59375 L 23.242188 22.738281 L 5.097656 22.378906 Z M 5.457031 4.238281 " clip-rule="nonzero"/></clipPath><clipPath id="4bcd6aed5b"><path d="M 5.457031 4.238281 L 23.597656 4.59375 L 23.242188 22.738281 L 5.097656 22.378906 Z M 5.457031 4.238281 " clip-rule="nonzero"/></clipPath><clipPath id="5a626c5073"><path d="M 5.457031 4.238281 L 23.597656 4.59375 L 23.242188 22.738281 L 5.097656 22.378906 Z M 5.457031 4.238281 " clip-rule="nonzero"/></clipPath><clipPath id="c3db99a14c"><path d="M 11 8 L 13 8 L 13 10 L 11 10 Z M 11 8 " clip-rule="nonzero"/></clipPath><clipPath id="b178582a4d"><path d="M 5.457031 4.238281 L 23.597656 4.59375 L 23.242188 22.738281 L 5.097656 22.378906 Z M 5.457031 4.238281 " clip-rule="nonzero"/></clipPath><clipPath id="a7c2494d35"><path d="M 5.457031 4.238281 L 23.597656 4.59375 L 23.242188 22.738281 L 5.097656 22.378906 Z M 5.457031 4.238281 " clip-rule="nonzero"/></clipPath><clipPath id="277b294d05"><path d="M 5.457031 4.238281 L 23.597656 4.59375 L 23.242188 22.738281 L 5.097656 22.378906 Z M 5.457031 4.238281 " clip-rule="nonzero"/></clipPath><clipPath id="f13a419297"><path d="M 11 6 L 13 6 L 13 8 L 11 8 Z M 11 6 " clip-rule="nonzero"/></clipPath><clipPath id="13a4ba43a1"><path d="M 5.457031 4.238281 L 23.597656 4.59375 L 23.242188 22.738281 L 5.097656 22.378906 Z M 5.457031 4.238281 " clip-rule="nonzero"/></clipPath><clipPath id="321dbdf51e"><path d="M 5.457031 4.238281 L 23.597656 4.59375 L 23.242188 22.738281 L 5.097656 22.378906 Z M 5.457031 4.238281 " clip-rule="nonzero"/></clipPath><clipPath id="185188d7d1"><path d="M 5.457031 4.238281 L 23.597656 4.59375 L 23.242188 22.738281 L 5.097656 22.378906 Z M 5.457031 4.238281 " clip-rule="nonzero"/></clipPath><clipPath id="8d5c9a1d97"><path d="M 11 4 L 13 4 L 13 6 L 11 6 Z M 11 4 " clip-rule="nonzero"/></clipPath><clipPath id="200a8f2d55"><path d="M 5.457031 4.238281 L 23.597656 4.59375 L 23.242188 22.738281 L 5.097656 22.378906 Z M 5.457031 4.238281 " clip-rule="nonzero"/></clipPath><clipPath id="cb8394c2eb"><path d="M 5.457031 4.238281 L 23.597656 4.59375 L 23.242188 22.738281 L 5.097656 22.378906 Z M 5.457031 4.238281 " clip-rule="nonzero"/></clipPath><clipPath id="b3ec4a7444"><path d="M 5.457031 4.238281 L 23.597656 4.59375 L 23.242188 22.738281 L 5.097656 22.378906 Z M 5.457031 4.238281 " clip-rule="nonzero"/></clipPath><clipPath id="4b6f2d1a89"><path d="M 12 11 L 14 11 L 14 13 L 12 13 Z M 12 11 " clip-rule="nonzero"/></clipPath><clipPath id="db5d51367d"><path d="M 5.457031 4.238281 L 23.597656 4.59375 L 23.242188 22.738281 L 5.097656 22.378906 Z M 5.457031 4.238281 " clip-rule="nonzero"/></clipPath><clipPath id="5dfcab1b96"><path d="M 5.457031 4.238281 L 23.597656 4.59375 L 23.242188 22.738281 L 5.097656 22.378906 Z M 5.457031 4.238281 " clip-rule="nonzero"/></clipPath><clipPath id="56db5d0207"><path d="M 5.457031 4.238281 L 23.597656 4.59375 L 23.242188 22.738281 L 5.097656 22.378906 Z M 5.457031 4.238281 " clip-rule="nonzero"/></clipPath><clipPath id="1e3bd4f33c"><path d="M 12 9 L 14 9 L 14 11 L 12 11 Z M 12 9 " clip-rule="nonzero"/></clipPath><clipPath id="fc974725e2"><path d="M 5.457031 4.238281 L 23.597656 4.59375 L 23.242188 22.738281 L 5.097656 22.378906 Z M 5.457031 4.238281 " clip-rule="nonzero"/></clipPath><clipPath id="83b1603e72"><path d="M 5.457031 4.238281 L 23.597656 4.59375 L 23.242188 22.738281 L 5.097656 22.378906 Z M 5.457031 4.238281 " clip-rule="nonzero"/></clipPath><clipPath id="d4ce63c692"><path d="M 5.457031 4.238281 L 23.597656 4.59375 L 23.242188 22.738281 L 5.097656 22.378906 Z M 5.457031 4.238281 " clip-rule="nonzero"/></clipPath><clipPath id="494a00c836"><path d="M 12 7 L 14 7 L 14 9 L 12 9 Z M 12 7 " clip-rule="nonzero"/></clipPath><clipPath id="768a617a00"><path d="M 5.457031 4.238281 L 23.597656 4.59375 L 23.242188 22.738281 L 5.097656 22.378906 Z M 5.457031 4.238281 " clip-rule="nonzero"/></clipPath><clipPath id="aca4b5087f"><path d="M 5.457031 4.238281 L 23.597656 4.59375 L 23.242188 22.738281 L 5.097656 22.378906 Z M 5.457031 4.238281 " clip-rule="nonzero"/></clipPath><clipPath id="bfb1077467"><path d="M 5.457031 4.238281 L 23.597656 4.59375 L 23.242188 22.738281 L 5.097656 22.378906 Z M 5.457031 4.238281 " clip-rule="nonzero"/></clipPath><clipPath id="0605aa50d2"><path d="M 12 5 L 14 5 L 14 7 L 12 7 Z M 12 5 " clip-rule="nonzero"/></clipPath><clipPath id="0f89b43e74"><path d="M 5.457031 4.238281 L 23.597656 4.59375 L 23.242188 22.738281 L 5.097656 22.378906 Z M 5.457031 4.238281 " clip-rule="nonzero"/></clipPath><clipPath id="5f2b2c29ae"><path d="M 5.457031 4.238281 L 23.597656 4.59375 L 23.242188 22.738281 L 5.097656 22.378906 Z M 5.457031 4.238281 " clip-rule="nonzero"/></clipPath><clipPath id="4fb742165b"><path d="M 5.457031 4.238281 L 23.597656 4.59375 L 23.242188 22.738281 L 5.097656 22.378906 Z M 5.457031 4.238281 " clip-rule="nonzero"/></clipPath><clipPath id="fc37eb87b3"><path d="M 13 12 L 15 12 L 15 14 L 13 14 Z M 13 12 " clip-rule="nonzero"/></clipPath><clipPath id="6c706699aa"><path d="M 5.457031 4.238281 L 23.597656 4.59375 L 23.242188 22.738281 L 5.097656 22.378906 Z M 5.457031 4.238281 " clip-rule="nonzero"/></clipPath><clipPath id="adc335e416"><path d="M 5.457031 4.238281 L 23.597656 4.59375 L 23.242188 22.738281 L 5.097656 22.378906 Z M 5.457031 4.238281 " clip-rule="nonzero"/></clipPath><clipPath id="63d62d2452"><path d="M 5.457031 4.238281 L 23.597656 4.59375 L 23.242188 22.738281 L 5.097656 22.378906 Z M 5.457031 4.238281 " clip-rule="nonzero"/></clipPath><clipPath id="b7b88da371"><path d="M 13 10 L 15 10 L 15 12 L 13 12 Z M 13 10 " clip-rule="nonzero"/></clipPath><clipPath id="d12afeebe6"><path d="M 5.457031 4.238281 L 23.597656 4.59375 L 23.242188 22.738281 L 5.097656 22.378906 Z M 5.457031 4.238281 " clip-rule="nonzero"/></clipPath><clipPath id="6b81e4059b"><path d="M 5.457031 4.238281 L 23.597656 4.59375 L 23.242188 22.738281 L 5.097656 22.378906 Z M 5.457031 4.238281 " clip-rule="nonzero"/></clipPath><clipPath id="0acc5bd52c"><path d="M 5.457031 4.238281 L 23.597656 4.59375 L 23.242188 22.738281 L 5.097656 22.378906 Z M 5.457031 4.238281 " clip-rule="nonzero"/></clipPath><clipPath id="3f998d82a0"><path d="M 13 8 L 15 8 L 15 10 L 13 10 Z M 13 8 " clip-rule="nonzero"/></clipPath><clipPath id="7b013d24f6"><path d="M 5.457031 4.238281 L 23.597656 4.59375 L 23.242188 22.738281 L 5.097656 22.378906 Z M 5.457031 4.238281 " clip-rule="nonzero"/></clipPath><clipPath id="9e33c270d5"><path d="M 5.457031 4.238281 L 23.597656 4.59375 L 23.242188 22.738281 L 5.097656 22.378906 Z M 5.457031 4.238281 " clip-rule="nonzero"/></clipPath><clipPath id="16ae7ed034"><path d="M 5.457031 4.238281 L 23.597656 4.59375 L 23.242188 22.738281 L 5.097656 22.378906 Z M 5.457031 4.238281 " clip-rule="nonzero"/></clipPath><clipPath id="78a8efcea0"><path d="M 13 6 L 15 6 L 15 8 L 13 8 Z M 13 6 " clip-rule="nonzero"/></clipPath><clipPath id="0e96fdc9da"><path d="M 5.457031 4.238281 L 23.597656 4.59375 L 23.242188 22.738281 L 5.097656 22.378906 Z M 5.457031 4.238281 " clip-rule="nonzero"/></clipPath><clipPath id="e9867c83f3"><path d="M 5.457031 4.238281 L 23.597656 4.59375 L 23.242188 22.738281 L 5.097656 22.378906 Z M 5.457031 4.238281 " clip-rule="nonzero"/></clipPath><clipPath id="1f5bc2fe37"><path d="M 5.457031 4.238281 L 23.597656 4.59375 L 23.242188 22.738281 L 5.097656 22.378906 Z M 5.457031 4.238281 " clip-rule="nonzero"/></clipPath><clipPath id="db6b7e4590"><path d="M 13 4 L 15 4 L 15 6 L 13 6 Z M 13 4 " clip-rule="nonzero"/></clipPath><clipPath id="7678dc08cc"><path d="M 5.457031 4.238281 L 23.597656 4.59375 L 23.242188 22.738281 L 5.097656 22.378906 Z M 5.457031 4.238281 " clip-rule="nonzero"/></clipPath><clipPath id="573f849505"><path d="M 5.457031 4.238281 L 23.597656 4.59375 L 23.242188 22.738281 L 5.097656 22.378906 Z M 5.457031 4.238281 " clip-rule="nonzero"/></clipPath><clipPath id="15245b4f78"><path d="M 5.457031 4.238281 L 23.597656 4.59375 L 23.242188 22.738281 L 5.097656 22.378906 Z M 5.457031 4.238281 " clip-rule="nonzero"/></clipPath><clipPath id="ce06b92498"><path d="M 14.394531 4.597656 L 23.828125 4.597656 L 23.828125 22.746094 L 14.394531 22.746094 Z M 14.394531 4.597656 " clip-rule="nonzero"/></clipPath><clipPath id="c4fda29f7a"><path d="M 14.394531 4.597656 L 23.828125 4.597656 L 23.828125 14 L 14.394531 14 Z M 14.394531 4.597656 " clip-rule="nonzero"/></clipPath><clipPath id="cf02f3ddf5"><path d="M 14.011719 4.601562 L 14.734375 4.601562 L 14.734375 22.746094 L 14.011719 22.746094 Z M 14.011719 4.601562 " clip-rule="nonzero"/></clipPath></defs><g clip-path="url(#f7bf501ff1)"><g clip-path="url(#f03ef15dc7)"><g clip-path="url(#cee5db19e5)"><g clip-path="url(#7f883ec2a1)"><path fill="#ac2037" d="M 5.546875 11.300781 L 23.230469 11.648438 C 23.125 11.132812 22.976562 10.632812 22.789062 10.152344 L 6.046875 9.824219 C 5.839844 10.296875 5.671875 10.789062 5.546875 11.300781 " fill-opacity="1" fill-rule="nonzero"/></g></g></g></g><g clip-path="url(#27ccfce40c)"><g clip-path="url(#474225b727)"><g clip-path="url(#535dafe0b4)"><g clip-path="url(#ab424fc28c)"><path fill="#ac2037" d="M 5.285156 13.308594 C 5.28125 13.558594 5.285156 13.804688 5.300781 14.050781 L 23.367188 14.410156 C 23.394531 14.164062 23.410156 13.917969 23.414062 13.664062 C 23.417969 13.414062 23.414062 13.167969 23.398438 12.921875 L 5.328125 12.566406 C 5.304688 12.808594 5.289062 13.058594 5.285156 13.308594 " fill-opacity="1" fill-rule="nonzero"/></g></g></g></g><g clip-path="url(#10a8da7262)"><g clip-path="url(#971b573832)"><g clip-path="url(#9cf0c2dda1)"><g clip-path="url(#7d5b24efa4)"><path fill="#ac2037" d="M 5.910156 16.820312 L 22.652344 17.148438 C 22.859375 16.679688 23.027344 16.183594 23.152344 15.671875 L 5.46875 15.324219 C 5.570312 15.839844 5.71875 16.339844 5.910156 16.820312 " fill-opacity="1" fill-rule="nonzero"/></g></g></g></g><g clip-path="url(#183ca1097b)"><g clip-path="url(#90213fbe7a)"><g clip-path="url(#0b4fc07916)"><g clip-path="url(#9d60b3c99a)"><path fill="#ac2037" d="M 7.632812 19.609375 L 20.816406 19.871094 C 21.253906 19.425781 21.644531 18.933594 21.980469 18.40625 L 6.53125 18.101562 C 6.847656 18.640625 7.21875 19.148438 7.632812 19.609375 " fill-opacity="1" fill-rule="nonzero"/></g></g></g></g><g clip-path="url(#e7d5125834)"><g clip-path="url(#c70e9215dc)"><g clip-path="url(#bbb69338f7)"><g clip-path="url(#e9a470262f)"><path fill="#ac2037" d="M 6.71875 8.566406 L 22.167969 8.871094 C 21.851562 8.332031 21.480469 7.828125 21.0625 7.363281 L 7.882812 7.105469 C 7.445312 7.550781 7.054688 8.039062 6.71875 8.566406 " fill-opacity="1" fill-rule="nonzero"/></g></g></g></g><g clip-path="url(#7d14b442f0)"><g clip-path="url(#9fa5bf261a)"><g clip-path="url(#c7c46ff948)"><g clip-path="url(#04ff4d8aec)"><path fill="#ac2037" d="M 9.085938 20.90625 C 10.308594 21.785156 11.757812 22.363281 13.332031 22.542969 L 15.007812 22.574219 C 16.585938 22.460938 18.058594 21.9375 19.316406 21.109375 L 9.085938 20.90625 " fill-opacity="1" fill-rule="nonzero"/></g></g></g></g><g clip-path="url(#2c7e13f925)"><g clip-path="url(#47817f23cd)"><g clip-path="url(#a3abb3df24)"><g clip-path="url(#1ae7f95113)"><path fill="#ac2037" d="M 19.613281 6.066406 C 18.390625 5.1875 16.941406 4.609375 15.363281 4.433594 L 13.691406 4.398438 C 12.109375 4.515625 10.640625 5.035156 9.382812 5.863281 L 19.613281 6.066406 " fill-opacity="1" fill-rule="nonzero"/></g></g></g></g><g clip-path="url(#d4a5c36845)"><g clip-path="url(#062a9ecf98)"><g clip-path="url(#bd7b9774a3)"><g clip-path="url(#9799d98640)"><path fill="#ffffff" d="M 7.882812 7.105469 L 21.0625 7.363281 C 20.628906 6.882812 20.140625 6.445312 19.613281 6.066406 L 9.382812 5.863281 C 8.839844 6.222656 8.335938 6.640625 7.882812 7.105469 " fill-opacity="1" fill-rule="nonzero"/></g></g></g></g><g clip-path="url(#65724c205f)"><g clip-path="url(#ddc2b48a14)"><g clip-path="url(#9b9a938cb7)"><g clip-path="url(#53cde689a8)"><path fill="#ffffff" d="M 6.046875 9.824219 L 22.789062 10.152344 C 22.617188 9.710938 22.40625 9.28125 22.167969 8.871094 L 6.71875 8.566406 C 6.464844 8.964844 6.238281 9.386719 6.046875 9.824219 " fill-opacity="1" fill-rule="nonzero"/></g></g></g></g><g clip-path="url(#2d4c88be2c)"><g clip-path="url(#bbd37742be)"><g clip-path="url(#bc1e06c5c3)"><g clip-path="url(#a48cea2320)"><path fill="#ffffff" d="M 5.328125 12.566406 L 23.398438 12.921875 C 23.371094 12.488281 23.316406 12.066406 23.230469 11.648438 L 5.546875 11.300781 C 5.445312 11.710938 5.371094 12.132812 5.328125 12.566406 " fill-opacity="1" fill-rule="nonzero"/></g></g></g></g><g clip-path="url(#f6ac57964a)"><g clip-path="url(#5468143e11)"><g clip-path="url(#9ff95bec4d)"><g clip-path="url(#73c3057fe3)"><path fill="#ffffff" d="M 5.46875 15.324219 L 23.152344 15.671875 C 23.253906 15.261719 23.324219 14.839844 23.367188 14.410156 L 5.300781 14.050781 C 5.328125 14.484375 5.382812 14.910156 5.46875 15.324219 " fill-opacity="1" fill-rule="nonzero"/></g></g></g></g><g clip-path="url(#e8f2af0c94)"><g clip-path="url(#e21e084a23)"><g clip-path="url(#840f6f19c5)"><g clip-path="url(#00644dcdd7)"><path fill="#ffffff" d="M 6.53125 18.101562 L 21.980469 18.40625 C 22.234375 18.007812 22.460938 17.589844 22.652344 17.148438 L 5.910156 16.820312 C 6.082031 17.265625 6.289062 17.691406 6.53125 18.101562 " fill-opacity="1" fill-rule="nonzero"/></g></g></g></g><g clip-path="url(#7deefd148d)"><g clip-path="url(#59ad9ca7ed)"><g clip-path="url(#7b01417f54)"><g clip-path="url(#54acbc0999)"><path fill="#ffffff" d="M 9.085938 20.90625 L 19.316406 21.109375 C 19.859375 20.75 20.363281 20.335938 20.816406 19.871094 L 7.632812 19.609375 C 8.070312 20.09375 8.558594 20.527344 9.085938 20.90625 " fill-opacity="1" fill-rule="nonzero"/></g></g></g></g><g clip-path="url(#5770a4bffe)"><g clip-path="url(#d66f1f5717)"><g clip-path="url(#01d3d7a1b7)"><g clip-path="url(#5921b26cbc)"><path fill="#22325e" d="M 15.335938 4.433594 L 13.691406 4.398438 C 9.070312 4.734375 5.378906 8.558594 5.285156 13.308594 C 5.28125 13.558594 5.285156 13.804688 5.300781 14.050781 L 15.140625 14.246094 L 15.335938 4.433594 " fill-opacity="1" fill-rule="nonzero"/></g></g></g></g><g clip-path="url(#be27316645)"><g clip-path="url(#2a62427399)"><g clip-path="url(#5040e57be7)"><g clip-path="url(#bdf3240c6e)"><path fill="#ffffff" d="M 6.6875 12.625 L 6.832031 12.9375 L 7.171875 12.992188 L 6.921875 13.230469 L 6.972656 13.570312 L 6.671875 13.402344 L 6.363281 13.558594 L 6.429688 13.21875 L 6.1875 12.976562 L 6.527344 12.933594 L 6.6875 12.625 " fill-opacity="1" fill-rule="nonzero"/></g></g></g></g><g clip-path="url(#7ae5acfbd5)"><g clip-path="url(#f5983b2403)"><g clip-path="url(#e470845e83)"><g clip-path="url(#4ddeb6880a)"><path fill="#ffffff" d="M 6.726562 10.664062 L 6.871094 10.976562 L 7.210938 11.03125 L 6.957031 11.269531 L 7.011719 11.609375 L 6.710938 11.441406 L 6.402344 11.597656 L 6.46875 11.257812 L 6.226562 11.011719 L 6.566406 10.96875 L 6.726562 10.664062 " fill-opacity="1" fill-rule="nonzero"/></g></g></g></g><g clip-path="url(#b63ed2701f)"><g clip-path="url(#953c6bc24f)"><g clip-path="url(#9757f833a2)"><g clip-path="url(#f07aa14895)"><path fill="#ffffff" d="M 7.066406 8.707031 L 7.214844 9.019531 L 7.550781 9.078125 L 7.300781 9.3125 L 7.351562 9.652344 L 7.050781 9.488281 L 6.746094 9.640625 L 6.808594 9.300781 L 6.570312 9.058594 L 6.910156 9.015625 L 7.066406 8.707031 " fill-opacity="1" fill-rule="nonzero"/></g></g></g></g><g clip-path="url(#6ebfaed3c2)"><g clip-path="url(#e7778dcdf5)"><g clip-path="url(#ed3f8bc8c9)"><g clip-path="url(#5be21a579f)"><path fill="#ffffff" d="M 7.957031 11.710938 L 8.105469 12.023438 L 8.441406 12.082031 L 8.191406 12.316406 L 8.242188 12.65625 L 7.945312 12.492188 L 7.636719 12.644531 L 7.703125 12.304688 L 7.460938 12.0625 L 7.800781 12.019531 L 7.957031 11.710938 " fill-opacity="1" fill-rule="nonzero"/></g></g></g></g><g clip-path="url(#d1762744cb)"><g clip-path="url(#8404b7e8b0)"><g clip-path="url(#cd5ebb4a56)"><g clip-path="url(#86c4192742)"><path fill="#ffffff" d="M 7.996094 9.75 L 8.144531 10.0625 L 8.480469 10.117188 L 8.230469 10.355469 L 8.28125 10.695312 L 7.980469 10.527344 L 7.675781 10.683594 L 7.738281 10.34375 L 7.5 10.097656 L 7.839844 10.054688 L 7.996094 9.75 " fill-opacity="1" fill-rule="nonzero"/></g></g></g></g><g clip-path="url(#44841797c7)"><g clip-path="url(#71563481c5)"><g clip-path="url(#62efed7da7)"><g clip-path="url(#1518adc8c2)"><path fill="#ffffff" d="M 8.035156 7.789062 L 8.183594 8.101562 L 8.519531 8.15625 L 8.269531 8.390625 L 8.320312 8.734375 L 8.019531 8.566406 L 7.714844 8.722656 L 7.777344 8.382812 L 7.539062 8.136719 L 7.878906 8.09375 L 8.035156 7.789062 " fill-opacity="1" fill-rule="nonzero"/></g></g></g></g><g clip-path="url(#5aa3f63de4)"><g clip-path="url(#cf737ae9be)"><g clip-path="url(#ef6edb60f7)"><g clip-path="url(#ba26ca775a)"><path fill="#ffffff" d="M 9.15625 12.675781 L 9.300781 12.988281 L 9.640625 13.042969 L 9.390625 13.277344 L 9.441406 13.621094 L 9.140625 13.453125 L 8.835938 13.605469 L 8.898438 13.269531 L 8.65625 13.023438 L 9 12.980469 L 9.15625 12.675781 " fill-opacity="1" fill-rule="nonzero"/></g></g></g></g><g clip-path="url(#2b4b5102ea)"><g clip-path="url(#c90e7ac451)"><g clip-path="url(#8ef9155c2c)"><g clip-path="url(#296fe75275)"><path fill="#ffffff" d="M 9.195312 10.714844 L 9.339844 11.023438 L 9.679688 11.082031 L 9.429688 11.316406 L 9.480469 11.65625 L 9.179688 11.492188 L 8.871094 11.644531 L 8.9375 11.308594 L 8.695312 11.0625 L 9.035156 11.019531 L 9.195312 10.714844 " fill-opacity="1" fill-rule="nonzero"/></g></g></g></g><g clip-path="url(#6169b6bde3)"><g clip-path="url(#5778a9c1bd)"><g clip-path="url(#8f829928e3)"><g clip-path="url(#f56e0f79bb)"><path fill="#ffffff" d="M 9.234375 8.75 L 9.378906 9.0625 L 9.71875 9.121094 L 9.46875 9.355469 L 9.519531 9.695312 L 9.21875 9.53125 L 8.910156 9.683594 L 8.976562 9.34375 L 8.734375 9.101562 L 9.074219 9.058594 L 9.234375 8.75 " fill-opacity="1" fill-rule="nonzero"/></g></g></g></g><g clip-path="url(#270d2877a6)"><g clip-path="url(#bf1af6ef4e)"><g clip-path="url(#dbed9dc390)"><g clip-path="url(#97fbf27a86)"><path fill="#ffffff" d="M 9.273438 6.789062 L 9.417969 7.101562 L 9.757812 7.15625 L 9.507812 7.394531 L 9.558594 7.734375 L 9.257812 7.566406 L 8.949219 7.722656 L 9.015625 7.382812 L 8.773438 7.136719 L 9.113281 7.09375 L 9.273438 6.789062 " fill-opacity="1" fill-rule="nonzero"/></g></g></g></g><g clip-path="url(#16cfaae37d)"><g clip-path="url(#49f7d969fe)"><g clip-path="url(#ed4d213abe)"><g clip-path="url(#27f7f83655)"><path fill="#ffffff" d="M 10.429688 11.761719 L 10.574219 12.074219 L 10.914062 12.128906 L 10.664062 12.363281 L 10.714844 12.707031 L 10.414062 12.539062 L 10.105469 12.695312 L 10.171875 12.355469 L 9.929688 12.109375 L 10.269531 12.066406 L 10.429688 11.761719 " fill-opacity="1" fill-rule="nonzero"/></g></g></g></g><g clip-path="url(#5fa99dcea4)"><g clip-path="url(#8bd41fbb8a)"><g clip-path="url(#523c3c3f68)"><g clip-path="url(#5215162a07)"><path fill="#ffffff" d="M 10.46875 9.800781 L 10.613281 10.109375 L 10.949219 10.167969 L 10.699219 10.402344 L 10.753906 10.742188 L 10.453125 10.578125 L 10.144531 10.730469 L 10.210938 10.394531 L 9.96875 10.148438 L 10.308594 10.105469 L 10.46875 9.800781 " fill-opacity="1" fill-rule="nonzero"/></g></g></g></g><g clip-path="url(#956453a49f)"><g clip-path="url(#6580f3ef2f)"><g clip-path="url(#af9bcd349c)"><g clip-path="url(#8dc6e87841)"><path fill="#ffffff" d="M 10.503906 7.835938 L 10.652344 8.148438 L 10.988281 8.207031 L 10.738281 8.441406 L 10.789062 8.78125 L 10.492188 8.617188 L 10.183594 8.769531 L 10.25 8.429688 L 10.007812 8.1875 L 10.347656 8.144531 L 10.503906 7.835938 " fill-opacity="1" fill-rule="nonzero"/></g></g></g></g><g clip-path="url(#89aa971e9d)"><g clip-path="url(#67de6d33ac)"><g clip-path="url(#60aae86009)"><g clip-path="url(#2cbd368531)"><path fill="#ffffff" d="M 10.542969 5.875 L 10.691406 6.1875 L 11.027344 6.242188 L 10.777344 6.480469 L 10.828125 6.820312 L 10.527344 6.652344 L 10.222656 6.808594 L 10.289062 6.46875 L 10.046875 6.222656 L 10.386719 6.179688 L 10.542969 5.875 " fill-opacity="1" fill-rule="nonzero"/></g></g></g></g><g clip-path="url(#836d193b99)"><g clip-path="url(#cc204fd997)"><g clip-path="url(#62359a4ea8)"><g clip-path="url(#fe6e7cdf78)"><path fill="#ffffff" d="M 11.625 12.722656 L 11.769531 13.035156 L 12.109375 13.089844 L 11.859375 13.328125 L 11.910156 13.667969 L 11.609375 13.5 L 11.304688 13.65625 L 11.367188 13.316406 L 11.128906 13.070312 L 11.46875 13.03125 L 11.625 12.722656 " fill-opacity="1" fill-rule="nonzero"/></g></g></g></g><g clip-path="url(#a7b64d67ad)"><g clip-path="url(#f785da4ff1)"><g clip-path="url(#4bcd6aed5b)"><g clip-path="url(#5a626c5073)"><path fill="#ffffff" d="M 11.664062 10.761719 L 11.808594 11.074219 L 12.148438 11.128906 L 11.898438 11.367188 L 11.949219 11.707031 L 11.648438 11.539062 L 11.34375 11.695312 L 11.40625 11.355469 L 11.167969 11.109375 L 11.507812 11.066406 L 11.664062 10.761719 " fill-opacity="1" fill-rule="nonzero"/></g></g></g></g><g clip-path="url(#c3db99a14c)"><g clip-path="url(#b178582a4d)"><g clip-path="url(#a7c2494d35)"><g clip-path="url(#277b294d05)"><path fill="#ffffff" d="M 11.703125 8.800781 L 11.847656 9.113281 L 12.1875 9.167969 L 11.9375 9.402344 L 11.988281 9.746094 L 11.6875 9.578125 L 11.382812 9.734375 L 11.445312 9.394531 L 11.207031 9.148438 L 11.546875 9.105469 L 11.703125 8.800781 " fill-opacity="1" fill-rule="nonzero"/></g></g></g></g><g clip-path="url(#f13a419297)"><g clip-path="url(#13a4ba43a1)"><g clip-path="url(#321dbdf51e)"><g clip-path="url(#185188d7d1)"><path fill="#ffffff" d="M 11.742188 6.839844 L 11.886719 7.148438 L 12.226562 7.207031 L 11.976562 7.441406 L 12.027344 7.78125 L 11.726562 7.617188 L 11.421875 7.769531 L 11.484375 7.433594 L 11.242188 7.1875 L 11.585938 7.144531 L 11.742188 6.839844 " fill-opacity="1" fill-rule="nonzero"/></g></g></g></g><g clip-path="url(#8d5c9a1d97)"><g clip-path="url(#200a8f2d55)"><g clip-path="url(#cb8394c2eb)"><g clip-path="url(#b3ec4a7444)"><path fill="#ffffff" d="M 11.78125 4.875 L 11.925781 5.1875 L 12.265625 5.246094 L 12.015625 5.480469 L 12.066406 5.820312 L 11.765625 5.65625 L 11.457031 5.808594 L 11.523438 5.46875 L 11.28125 5.226562 L 11.621094 5.183594 L 11.78125 4.875 " fill-opacity="1" fill-rule="nonzero"/></g></g></g></g><g clip-path="url(#4b6f2d1a89)"><g clip-path="url(#db5d51367d)"><g clip-path="url(#5dfcab1b96)"><g clip-path="url(#56db5d0207)"><path fill="#ffffff" d="M 12.898438 11.808594 L 13.042969 12.121094 L 13.382812 12.179688 L 13.132812 12.414062 L 13.183594 12.753906 L 12.882812 12.585938 L 12.574219 12.742188 L 12.640625 12.402344 L 12.398438 12.160156 L 12.742188 12.117188 L 12.898438 11.808594 " fill-opacity="1" fill-rule="nonzero"/></g></g></g></g><g clip-path="url(#1e3bd4f33c)"><g clip-path="url(#fc974725e2)"><g clip-path="url(#83b1603e72)"><g clip-path="url(#d4ce63c692)"><path fill="#ffffff" d="M 12.9375 9.847656 L 13.082031 10.160156 L 13.421875 10.214844 L 13.171875 10.453125 L 13.222656 10.792969 L 12.921875 10.625 L 12.613281 10.78125 L 12.679688 10.441406 L 12.4375 10.195312 L 12.777344 10.152344 L 12.9375 9.847656 " fill-opacity="1" fill-rule="nonzero"/></g></g></g></g><g clip-path="url(#494a00c836)"><g clip-path="url(#768a617a00)"><g clip-path="url(#aca4b5087f)"><g clip-path="url(#bfb1077467)"><path fill="#ffffff" d="M 12.976562 7.886719 L 13.121094 8.199219 L 13.460938 8.253906 L 13.210938 8.488281 L 13.261719 8.832031 L 12.960938 8.664062 L 12.652344 8.820312 L 12.71875 8.480469 L 12.476562 8.234375 L 12.816406 8.191406 L 12.976562 7.886719 " fill-opacity="1" fill-rule="nonzero"/></g></g></g></g><g clip-path="url(#0605aa50d2)"><g clip-path="url(#0f89b43e74)"><g clip-path="url(#5f2b2c29ae)"><g clip-path="url(#4fb742165b)"><path fill="#ffffff" d="M 13.015625 5.925781 L 13.160156 6.234375 L 13.5 6.292969 L 13.246094 6.527344 L 13.300781 6.867188 L 13 6.703125 L 12.691406 6.855469 L 12.757812 6.519531 L 12.515625 6.273438 L 12.855469 6.230469 L 13.015625 5.925781 " fill-opacity="1" fill-rule="nonzero"/></g></g></g></g><g clip-path="url(#fc37eb87b3)"><g clip-path="url(#6c706699aa)"><g clip-path="url(#adc335e416)"><g clip-path="url(#63d62d2452)"><path fill="#ffffff" d="M 14.09375 12.773438 L 14.242188 13.085938 L 14.578125 13.140625 L 14.328125 13.375 L 14.378906 13.714844 L 14.082031 13.550781 L 13.773438 13.703125 L 13.839844 13.367188 L 13.597656 13.121094 L 13.9375 13.078125 L 14.09375 12.773438 " fill-opacity="1" fill-rule="nonzero"/></g></g></g></g><g clip-path="url(#b7b88da371)"><g clip-path="url(#d12afeebe6)"><g clip-path="url(#6b81e4059b)"><g clip-path="url(#0acc5bd52c)"><path fill="#ffffff" d="M 14.132812 10.808594 L 14.28125 11.121094 L 14.617188 11.179688 L 14.367188 11.414062 L 14.417969 11.753906 L 14.117188 11.589844 L 13.8125 11.742188 L 13.878906 11.40625 L 13.636719 11.160156 L 13.976562 11.117188 L 14.132812 10.808594 " fill-opacity="1" fill-rule="nonzero"/></g></g></g></g><g clip-path="url(#3f998d82a0)"><g clip-path="url(#7b013d24f6)"><g clip-path="url(#9e33c270d5)"><g clip-path="url(#16ae7ed034)"><path fill="#ffffff" d="M 14.171875 8.847656 L 14.320312 9.160156 L 14.65625 9.21875 L 14.40625 9.453125 L 14.457031 9.792969 L 14.15625 9.625 L 13.851562 9.78125 L 13.914062 9.441406 L 13.675781 9.199219 L 14.015625 9.15625 L 14.171875 8.847656 " fill-opacity="1" fill-rule="nonzero"/></g></g></g></g><g clip-path="url(#78a8efcea0)"><g clip-path="url(#0e96fdc9da)"><g clip-path="url(#e9867c83f3)"><g clip-path="url(#1f5bc2fe37)"><path fill="#ffffff" d="M 14.210938 6.886719 L 14.355469 7.199219 L 14.695312 7.253906 L 14.445312 7.492188 L 14.496094 7.832031 L 14.195312 7.664062 L 13.890625 7.820312 L 13.953125 7.480469 L 13.714844 7.234375 L 14.054688 7.191406 L 14.210938 6.886719 " fill-opacity="1" fill-rule="nonzero"/></g></g></g></g><g clip-path="url(#db6b7e4590)"><g clip-path="url(#7678dc08cc)"><g clip-path="url(#573f849505)"><g clip-path="url(#15245b4f78)"><path fill="#ffffff" d="M 14.25 4.925781 L 14.394531 5.238281 L 14.734375 5.292969 L 14.484375 5.527344 L 14.535156 5.871094 L 14.234375 5.703125 L 13.929688 5.859375 L 13.992188 5.519531 L 13.753906 5.273438 L 14.09375 5.230469 L 14.25 4.925781 " fill-opacity="1" fill-rule="nonzero"/></g></g></g></g><g clip-path="url(#ce06b92498)"><path fill="#ffffff" d="M 5.808594 13.511719 L 5.890625 14.71875 C 6.285156 17.152344 7.429688 19.101562 9.332031 20.5625 C 11.242188 22.019531 13.496094 22.613281 16.089844 22.335938 C 18.566406 21.953125 20.546875 20.824219 22.03125 18.953125 C 23.074219 17.34375 23.597656 16.320312 23.59375 15.878906 C 23.804688 15.121094 23.914062 14.332031 23.917969 13.511719 C 23.851562 10.988281 22.96875 8.886719 21.265625 7.210938 C 19.5625 5.535156 17.425781 4.667969 14.863281 4.601562 C 12.296875 4.667969 10.164062 5.535156 8.460938 7.210938 C 6.757812 8.886719 5.875 10.988281 5.808594 13.511719 Z M 5.808594 13.511719 " fill-opacity="1" fill-rule="nonzero"/></g><g clip-path="url(#c4fda29f7a)"><path fill="#ff0000" d="M 14.863281 4.601562 C 17.425781 4.667969 19.5625 5.535156 21.265625 7.210938 C 22.964844 8.882812 23.847656 10.976562 23.917969 13.492188 C 17.878906 13.492188 11.84375 13.492188 5.808594 13.492188 C 5.878906 10.976562 6.761719 8.882812 8.460938 7.210938 C 10.164062 5.535156 12.296875 4.667969 14.863281 4.601562 Z M 14.863281 4.601562 " fill-opacity="1" fill-rule="nonzero"/></g><g clip-path="url(#cf02f3ddf5)"><path fill="#ffffff" d="M 14.589844 22.722656 C 14.507812 22.722656 14.441406 22.65625 14.441406 22.574219 L 14.441406 4.988281 C 14.441406 4.90625 14.507812 4.839844 14.589844 4.839844 C 14.671875 4.839844 14.734375 4.90625 14.734375 4.988281 L 14.734375 22.574219 C 14.734375 22.65625 14.671875 22.722656 14.589844 22.722656 Z M 14.589844 22.722656 " fill-opacity="1" fill-rule="nonzero"/></g></svg>