<svg xmlns="http://www.w3.org/2000/svg" xmlns:xlink="http://www.w3.org/1999/xlink" width="250" zoomAndPan="magnify" viewBox="0 0 187.5 52.499999" height="70" preserveAspectRatio="xMidYMid meet" version="1.0"><defs><g/><clipPath id="5ce4281f95"><path d="M 159 16 L 164 16 L 164 20 L 159 20 Z M 159 16 " clip-rule="nonzero"/></clipPath><clipPath id="d21d0b9aaf"><path d="M 159.453125 16.367188 L 163.882812 15.84375 L 164.316406 19.53125 L 159.890625 20.054688 Z M 159.453125 16.367188 " clip-rule="nonzero"/></clipPath><clipPath id="f4a4b37c99"><path d="M 159.453125 16.367188 L 163.882812 15.84375 L 164.316406 19.53125 L 159.890625 20.054688 Z M 159.453125 16.367188 " clip-rule="nonzero"/></clipPath><clipPath id="20bbc9d432"><path d="M 155 15 L 161 15 L 161 20 L 155 20 Z M 155 15 " clip-rule="nonzero"/></clipPath><clipPath id="d8a1e4ae8a"><path d="M 156.257812 20.347656 L 155.042969 15.292969 L 159.378906 14.25 L 160.59375 19.308594 Z M 156.257812 20.347656 " clip-rule="nonzero"/></clipPath><clipPath id="5f449cd141"><path d="M 156.257812 20.347656 L 155.042969 15.292969 L 159.378906 14.25 L 160.59375 19.308594 Z M 156.257812 20.347656 " clip-rule="nonzero"/></clipPath></defs><g fill="#279a65" fill-opacity="1"><g transform="translate(30.56016, 35.287696)"><g><path d="M 5.953125 -14.78125 L 0.109375 -14.78125 L 0.109375 -19.046875 L 17.171875 -19.046875 L 17.171875 -14.78125 L 11.34375 -14.78125 L 11.34375 0 L 5.953125 0 Z M 5.953125 -14.78125 "/></g></g></g><g fill="#279a65" fill-opacity="1"><g transform="translate(45.525843, 35.287696)"><g><path d="M 16.734375 -7.34375 C 16.734375 -7.3125 16.707031 -6.882812 16.65625 -6.0625 L 5.9375 -6.0625 C 6.15625 -5.300781 6.578125 -4.71875 7.203125 -4.3125 C 7.828125 -3.90625 8.609375 -3.703125 9.546875 -3.703125 C 10.253906 -3.703125 10.867188 -3.800781 11.390625 -4 C 11.910156 -4.195312 12.429688 -4.523438 12.953125 -4.984375 L 15.671875 -2.15625 C 14.242188 -0.550781 12.148438 0.25 9.390625 0.25 C 7.671875 0.25 6.15625 -0.078125 4.84375 -0.734375 C 3.539062 -1.390625 2.53125 -2.296875 1.8125 -3.453125 C 1.09375 -4.617188 0.734375 -5.9375 0.734375 -7.40625 C 0.734375 -8.851562 1.082031 -10.148438 1.78125 -11.296875 C 2.476562 -12.453125 3.441406 -13.359375 4.671875 -14.015625 C 5.910156 -14.671875 7.300781 -15 8.84375 -15 C 10.3125 -15 11.644531 -14.691406 12.84375 -14.078125 C 14.039062 -13.472656 14.988281 -12.59375 15.6875 -11.4375 C 16.382812 -10.289062 16.734375 -8.925781 16.734375 -7.34375 Z M 8.875 -11.328125 C 8.070312 -11.328125 7.398438 -11.097656 6.859375 -10.640625 C 6.328125 -10.191406 5.992188 -9.578125 5.859375 -8.796875 L 11.890625 -8.796875 C 11.742188 -9.578125 11.40625 -10.191406 10.875 -10.640625 C 10.34375 -11.097656 9.675781 -11.328125 8.875 -11.328125 Z M 8.875 -11.328125 "/></g></g></g><g fill="#279a65" fill-opacity="1"><g transform="translate(60.682011, 35.287696)"><g><path d="M 6.59375 -12.984375 C 7.113281 -13.648438 7.796875 -14.148438 8.640625 -14.484375 C 9.484375 -14.828125 10.453125 -15 11.546875 -15 L 11.546875 -10.34375 C 11.066406 -10.394531 10.675781 -10.421875 10.375 -10.421875 C 9.257812 -10.421875 8.390625 -10.117188 7.765625 -9.515625 C 7.140625 -8.921875 6.828125 -8.007812 6.828125 -6.78125 L 6.828125 0 L 1.65625 0 L 1.65625 -14.75 L 6.59375 -14.75 Z M 6.59375 -12.984375 "/></g></g></g><g fill="#279a65" fill-opacity="1"><g transform="translate(70.423131, 35.287696)"><g><path d="M 6.59375 -12.984375 C 7.113281 -13.648438 7.796875 -14.148438 8.640625 -14.484375 C 9.484375 -14.828125 10.453125 -15 11.546875 -15 L 11.546875 -10.34375 C 11.066406 -10.394531 10.675781 -10.421875 10.375 -10.421875 C 9.257812 -10.421875 8.390625 -10.117188 7.765625 -9.515625 C 7.140625 -8.921875 6.828125 -8.007812 6.828125 -6.78125 L 6.828125 0 L 1.65625 0 L 1.65625 -14.75 L 6.59375 -14.75 Z M 6.59375 -12.984375 "/></g></g></g><g fill="#279a65" fill-opacity="1"><g transform="translate(80.164253, 35.287696)"><g><path d="M 7.953125 -15 C 10.398438 -15 12.265625 -14.441406 13.546875 -13.328125 C 14.835938 -12.210938 15.484375 -10.5 15.484375 -8.1875 L 15.484375 0 L 10.671875 0 L 10.671875 -1.90625 C 9.921875 -0.46875 8.46875 0.25 6.3125 0.25 C 5.164062 0.25 4.175781 0.0507812 3.34375 -0.34375 C 2.507812 -0.75 1.878906 -1.289062 1.453125 -1.96875 C 1.023438 -2.65625 0.8125 -3.429688 0.8125 -4.296875 C 0.8125 -5.691406 1.347656 -6.773438 2.421875 -7.546875 C 3.492188 -8.316406 5.144531 -8.703125 7.375 -8.703125 L 10.3125 -8.703125 C 10.226562 -10.265625 9.1875 -11.046875 7.1875 -11.046875 C 6.476562 -11.046875 5.757812 -10.929688 5.03125 -10.703125 C 4.3125 -10.484375 3.695312 -10.171875 3.1875 -9.765625 L 1.4375 -13.28125 C 2.257812 -13.820312 3.253906 -14.242188 4.421875 -14.546875 C 5.585938 -14.847656 6.765625 -15 7.953125 -15 Z M 7.75 -3.015625 C 8.351562 -3.015625 8.878906 -3.160156 9.328125 -3.453125 C 9.785156 -3.742188 10.113281 -4.171875 10.3125 -4.734375 L 10.3125 -6.015625 L 8.078125 -6.015625 C 6.578125 -6.015625 5.828125 -5.515625 5.828125 -4.515625 C 5.828125 -4.066406 6 -3.703125 6.34375 -3.421875 C 6.6875 -3.148438 7.15625 -3.015625 7.75 -3.015625 Z M 7.75 -3.015625 "/></g></g></g><g fill="#ffffff" fill-opacity="1"><g transform="translate(94.944963, 35.287696)"><g><path d="M 10.609375 -19.046875 C 12.335938 -19.046875 13.835938 -18.757812 15.109375 -18.1875 C 16.378906 -17.625 17.359375 -16.8125 18.046875 -15.75 C 18.734375 -14.6875 19.078125 -13.4375 19.078125 -12 C 19.078125 -10.570312 18.734375 -9.332031 18.046875 -8.28125 C 17.359375 -7.226562 16.378906 -6.414062 15.109375 -5.84375 C 13.835938 -5.269531 12.335938 -4.984375 10.609375 -4.984375 L 7.296875 -4.984375 L 7.296875 0 L 1.90625 0 L 1.90625 -19.046875 Z M 10.28125 -9.234375 C 11.394531 -9.234375 12.234375 -9.472656 12.796875 -9.953125 C 13.359375 -10.429688 13.640625 -11.113281 13.640625 -12 C 13.640625 -12.894531 13.359375 -13.585938 12.796875 -14.078125 C 12.234375 -14.566406 11.394531 -14.8125 10.28125 -14.8125 L 7.296875 -14.8125 L 7.296875 -9.234375 Z M 10.28125 -9.234375 "/></g></g></g><g fill="#ffffff" fill-opacity="1"><g transform="translate(112.6862, 35.287696)"><g><path d="M 17.171875 -14.75 L 17.171875 0 L 12.25 0 L 12.25 -1.578125 C 11.707031 -0.984375 11.050781 -0.53125 10.28125 -0.21875 C 9.519531 0.09375 8.710938 0.25 7.859375 0.25 C 5.960938 0.25 4.445312 -0.3125 3.3125 -1.4375 C 2.175781 -2.5625 1.609375 -4.25 1.609375 -6.5 L 1.609375 -14.75 L 6.78125 -14.75 L 6.78125 -7.34375 C 6.78125 -6.238281 6.988281 -5.429688 7.40625 -4.921875 C 7.820312 -4.421875 8.429688 -4.171875 9.234375 -4.171875 C 10.046875 -4.171875 10.707031 -4.453125 11.21875 -5.015625 C 11.738281 -5.585938 12 -6.46875 12 -7.65625 L 12 -14.75 Z M 17.171875 -14.75 "/></g></g></g><g fill="#ffffff" fill-opacity="1"><g transform="translate(129.202934, 35.287696)"><g><path d="M 6.59375 -12.984375 C 7.113281 -13.648438 7.796875 -14.148438 8.640625 -14.484375 C 9.484375 -14.828125 10.453125 -15 11.546875 -15 L 11.546875 -10.34375 C 11.066406 -10.394531 10.675781 -10.421875 10.375 -10.421875 C 9.257812 -10.421875 8.390625 -10.117188 7.765625 -9.515625 C 7.140625 -8.921875 6.828125 -8.007812 6.828125 -6.78125 L 6.828125 0 L 1.65625 0 L 1.65625 -14.75 L 6.59375 -14.75 Z M 6.59375 -12.984375 "/></g></g></g><g fill="#ffffff" fill-opacity="1"><g transform="translate(138.944056, 35.287696)"><g><path d="M 16.734375 -7.34375 C 16.734375 -7.3125 16.707031 -6.882812 16.65625 -6.0625 L 5.9375 -6.0625 C 6.15625 -5.300781 6.578125 -4.71875 7.203125 -4.3125 C 7.828125 -3.90625 8.609375 -3.703125 9.546875 -3.703125 C 10.253906 -3.703125 10.867188 -3.800781 11.390625 -4 C 11.910156 -4.195312 12.429688 -4.523438 12.953125 -4.984375 L 15.671875 -2.15625 C 14.242188 -0.550781 12.148438 0.25 9.390625 0.25 C 7.671875 0.25 6.15625 -0.078125 4.84375 -0.734375 C 3.539062 -1.390625 2.53125 -2.296875 1.8125 -3.453125 C 1.09375 -4.617188 0.734375 -5.9375 0.734375 -7.40625 C 0.734375 -8.851562 1.082031 -10.148438 1.78125 -11.296875 C 2.476562 -12.453125 3.441406 -13.359375 4.671875 -14.015625 C 5.910156 -14.671875 7.300781 -15 8.84375 -15 C 10.3125 -15 11.644531 -14.691406 12.84375 -14.078125 C 14.039062 -13.472656 14.988281 -12.59375 15.6875 -11.4375 C 16.382812 -10.289062 16.734375 -8.925781 16.734375 -7.34375 Z M 8.875 -11.328125 C 8.070312 -11.328125 7.398438 -11.097656 6.859375 -10.640625 C 6.328125 -10.191406 5.992188 -9.578125 5.859375 -8.796875 L 11.890625 -8.796875 C 11.742188 -9.578125 11.40625 -10.191406 10.875 -10.640625 C 10.34375 -11.097656 9.675781 -11.328125 8.875 -11.328125 Z M 8.875 -11.328125 "/></g></g></g><g clip-path="url(#5ce4281f95)"><g clip-path="url(#d21d0b9aaf)"><g clip-path="url(#f4a4b37c99)"><path fill="#ffffff" d="M 162.796875 16.691406 C 160.816406 16.917969 159.867188 17.964844 160 19.886719 C 160.003906 19.914062 159.96875 19.917969 159.960938 19.894531 C 159.800781 19.28125 159.75 18.710938 159.847656 18.195312 C 160.179688 16.5 162.148438 16.050781 163.628906 16.398438 C 163.699219 16.417969 163.726562 16.507812 163.671875 16.558594 C 162.671875 17.574219 163.109375 19.96875 160.296875 19.242188 C 160.5625 17.886719 161.328125 16.976562 162.796875 16.691406 " fill-opacity="1" fill-rule="evenodd"/></g></g></g><g clip-path="url(#20bbc9d432)"><g clip-path="url(#d8a1e4ae8a)"><g clip-path="url(#5f449cd141)"><path fill="#279a65" d="M 156.175781 16.445312 C 156.707031 18.699219 158.046875 19.65625 160.25 19.234375 C 160.277344 19.230469 160.285156 19.269531 160.261719 19.28125 C 159.574219 19.550781 158.921875 19.6875 158.316406 19.644531 C 156.3125 19.496094 155.523438 17.28125 155.726562 15.527344 C 155.734375 15.441406 155.835938 15.398438 155.90625 15.453125 C 157.210938 16.46875 159.914062 15.640625 159.460938 18.984375 C 157.859375 18.863281 156.703125 18.105469 156.175781 16.445312 " fill-opacity="1" fill-rule="evenodd"/></g></g></g></svg>